<svg width="15" height="14" viewBox="0 0 15 14" fill="none" xmlns="http://www.w3.org/2000/svg">
<path fill-rule="evenodd" clip-rule="evenodd" d="M3.59231 4.8239H0.684269C0.478968 4.8239 0.273684 4.8239 0.136884 4.68712C0.0342168 4.58447 0 4.44758 0 4.31076C0 3.76338 0.478985 3.76338 0.786852 3.76338H6.22662C6.91082 3.76338 7.45822 3.28438 7.56087 2.60018C7.62929 1.91589 7.25299 1.33424 6.56871 1.12904C6.46607 1.09479 6.36342 1.09479 6.26079 1.09479C5.85029 1.09479 5.43968 1.30007 5.20023 1.64217C5.18313 1.65929 5.16603 1.68494 5.14893 1.7106C5.13182 1.73626 5.11472 1.76193 5.0976 1.77906C5.08054 1.79613 5.06346 1.82174 5.04637 1.84737C5.02925 1.87304 5.01211 1.89874 4.99497 1.91589C4.85813 2.08692 4.68708 2.18957 4.55022 2.18957C4.44757 2.18957 4.34491 2.15534 4.27651 2.05276C4.10546 1.91589 4.03703 1.53952 4.10546 1.36849C4.41338 0.581635 5.30288 0 6.22664 0H6.39769C7.69776 0.102634 8.65568 1.19742 8.62151 2.46327C8.58726 3.76336 7.56089 4.75548 6.29504 4.78973H5.20025C4.92657 4.8239 3.83176 4.8239 3.59231 4.8239ZM12.1453 1.88161C13.548 1.88161 14.677 2.80535 14.9507 4.13967C15.2244 5.64498 14.3349 7.04771 12.8296 7.3898C12.5216 7.4582 12.2137 7.4582 11.9058 7.4582H0.718452C0.718452 7.5267 0.684269 7.5267 0.615802 7.5267C0.547402 7.5267 0.478968 7.5267 0.376335 7.49245C0.239451 7.42407 0 7.25298 0 7.0477C0 6.87665 0.171034 6.63711 0.307918 6.53446C0.410551 6.46606 0.547385 6.46606 0.650019 6.46606H12.0085C12.9664 6.46606 13.6507 6.02133 13.8902 5.23444C14.1639 4.3791 13.7191 3.42122 12.8638 3.07902L12.8633 3.07886C12.6582 3.01053 12.4531 2.94222 12.2137 2.94222C11.5295 2.94222 10.9137 3.31857 10.64 3.93437L10.6399 3.93452C10.6058 4.00287 10.5716 4.07124 10.5716 4.13965C10.5545 4.17385 10.5459 4.19951 10.5374 4.22516C10.5288 4.25083 10.5202 4.2765 10.5031 4.31072C10.4005 4.55019 10.2295 4.68707 10.0584 4.68707C9.98997 4.68707 9.88732 4.65282 9.8189 4.61861C9.6478 4.51604 9.47676 4.17387 9.51098 3.96864C9.71628 2.97642 10.7084 2.05275 11.769 1.91586C11.8423 1.91586 11.9157 1.90603 11.9837 1.8969C12.0427 1.88899 12.0977 1.88161 12.1453 1.88161ZM0.649985 9.16889H9.6136C11.0505 9.16889 12.0085 9.92151 12.248 11.1874C12.4532 12.3164 11.8032 13.4454 10.7426 13.8218C10.4689 13.8902 10.1952 13.9244 9.8873 13.9244C9.032 13.9244 8.21089 13.4796 7.80038 12.727C7.69773 12.5559 7.45821 12.1453 7.90296 11.8716C8.00559 11.8033 8.10824 11.769 8.21088 11.769C8.45034 11.769 8.62148 11.9743 8.72406 12.1796C8.99775 12.6243 9.3741 12.8638 9.85308 12.8638H10.0926C10.64 12.7954 11.0163 12.4533 11.1874 11.8716C11.29 11.4953 11.2216 11.119 10.9821 10.8111C10.7768 10.5031 10.4347 10.2979 10.0584 10.2637C9.64779 10.2295 9.20304 10.2295 8.86094 10.2295H8.86091H0.649985C0.581568 10.2295 0.478918 10.2295 0.376284 10.161C0.2394 10.0926 0.0341665 9.88734 0.0341665 9.71629C0.0341665 9.54524 0.205234 9.33992 0.342067 9.23729C0.444684 9.16889 0.547352 9.16889 0.649985 9.16889Z" fill="#DEF6E5"/>
</svg>
