<svg width="20" height="20" viewBox="0 0 20 20" fill="none" xmlns="http://www.w3.org/2000/svg">
<path d="M10 0C4.47669 0 0 4.47669 0 9.99992C0 15.5231 4.47669 20 10 20C15.5233 20 20 15.5231 20 9.99992C20 4.47669 15.5233 0 10 0ZM10 0.833347C15.0545 0.833347 19.1667 4.94546 19.1667 9.99996C19.1667 12.2237 18.37 14.2646 17.0475 15.8536C16.1336 15.4719 13.9762 14.7232 12.6408 14.3289C12.5269 14.2931 12.5089 14.2874 12.5089 13.8134C12.5089 13.4219 12.6701 13.0277 12.8272 12.694C12.9972 12.3315 13.199 11.722 13.2715 11.1751C13.4741 10.9398 13.75 10.476 13.9274 9.59183C14.0828 8.81259 14.0104 8.529 13.9071 8.26287C13.8965 8.23478 13.8851 8.20713 13.877 8.17944C13.8379 7.99673 13.8916 7.04745 14.0251 6.31096C14.117 5.80558 14.0015 4.73096 13.3057 3.84195C12.8662 3.28 12.0256 2.59032 10.4899 2.4943L9.64765 2.4951C8.13803 2.59036 7.29655 3.28 6.85711 3.84195C6.16132 4.731 6.04579 5.80562 6.13774 6.3106C6.272 7.04745 6.32491 7.99673 6.28666 8.17578C6.27854 8.20709 6.26714 8.23478 6.25575 8.26287C6.1532 8.529 6.07997 8.81259 6.23623 9.59183C6.4128 10.476 6.6887 10.9399 6.89213 11.1751C6.96376 11.7219 7.1656 12.3315 7.33647 12.694C7.46098 12.9593 7.51958 13.3202 7.51958 13.8305C7.51958 14.3045 7.50165 14.3102 7.39504 14.344C6.01403 14.7517 3.81597 15.546 2.99644 15.9049C1.64798 14.3086 0.833353 12.2481 0.833353 10C0.833313 4.94542 4.94546 0.833347 10 0.833347ZM3.60023 16.5544C4.53856 16.1714 6.40949 15.504 7.63831 15.1411C8.35286 14.9157 8.35286 14.3139 8.35286 13.8305C8.35286 13.4297 8.32521 12.8388 8.09082 12.3392C7.92967 11.997 7.74572 11.4102 7.70508 10.9509C7.69613 10.8436 7.64561 10.744 7.56428 10.6734C7.44627 10.57 7.20619 10.1916 7.0532 9.42829C6.93197 8.82402 6.98324 8.69179 7.03289 8.56402C7.05404 8.50948 7.0744 8.45578 7.09069 8.39514C7.19077 8.02936 7.07926 6.82777 6.95802 6.16127C6.90515 5.87155 6.97185 5.04841 7.51384 4.35502C7.99967 3.73371 8.73533 3.38741 9.67366 3.32761L10.4639 3.32677C11.4274 3.38741 12.1631 3.73371 12.6497 4.35502C13.1917 5.04841 13.2577 5.87155 13.2047 6.16163C13.0843 6.82777 12.972 8.02932 13.0721 8.3947C13.0892 8.45574 13.1087 8.50944 13.1299 8.56398C13.1795 8.69171 13.2308 8.82398 13.1103 9.42825C12.9574 10.1916 12.7165 10.57 12.5985 10.6733C12.5177 10.7444 12.4673 10.8437 12.4577 10.9508C12.4178 11.4102 12.2339 11.997 12.0728 12.3392C11.888 12.7318 11.6756 13.2547 11.6756 13.8133C11.6756 14.2968 11.6756 14.8986 12.3975 15.126C13.5734 15.4735 15.4533 16.1192 16.4461 16.5097C14.7884 18.1511 12.5106 19.1667 10 19.1667C7.51221 19.1667 5.25391 18.169 3.60023 16.5544Z" fill="#DEF6E5"/>
</svg>
