<svg width="7" height="12" viewBox="0 0 7 12" fill="none" xmlns="http://www.w3.org/2000/svg">
<path d="M1.30973e-07 1.01686C1.34141e-07 0.751198 0.050873 0.535915 0.152619 0.371018C0.254364 0.206121 0.388483 0.0961895 0.554976 0.0412245C0.721469 -0.0137415 0.908773 -0.0137415 1.11689 0.0412245C1.32501 0.0961895 1.53081 0.215282 1.7343 0.398501C2.56676 1.14054 3.38073 1.85509 4.17619 2.54216C4.97166 3.22923 5.71625 3.8934 6.40997 4.53467C6.59497 4.70872 6.73833 4.91255 6.84008 5.14616C6.94182 5.37976 6.99501 5.62024 6.99963 5.86758C7.00426 6.11493 6.96495 6.35311 6.8817 6.58214C6.79846 6.81116 6.66896 7.00354 6.49322 7.15928C6.09549 7.51655 5.6885 7.88757 5.27227 8.27233L4.02358 9.45409C3.60734 9.83885 3.19805 10.2213 2.79569 10.6015C2.39333 10.9817 2.00254 11.3367 1.6233 11.6665C1.44756 11.8222 1.26488 11.923 1.07527 11.9688C0.885649 12.0146 0.712219 12.01 0.554976 11.955C0.397733 11.9001 0.268238 11.7947 0.166493 11.639C0.0647471 11.4832 0.0138744 11.2817 0.0138744 11.0344C0.0138744 10.7137 0.0115619 10.2717 0.00693714 9.70831C0.00231234 9.14491 4.13932e-08 8.52884 4.9368e-08 7.86009L7.39477e-08 5.79888L9.80358e-08 3.77889L1.18191e-07 2.0887L1.30973e-07 1.01686Z" fill="#DEF6E5"/>
</svg>
