<svg width="14" height="11" viewBox="0 0 14 11" fill="none" xmlns="http://www.w3.org/2000/svg">
<path fill-rule="evenodd" clip-rule="evenodd" d="M7.75924 2.51533L10.6363 3.28623L0.410281 9.19021C0.0329079 9.40809 -0.0965388 9.89119 0.121338 10.2686C0.339215 10.6459 0.822316 10.7754 1.19969 10.5575L11.4257 4.65352L10.6548 7.53056C10.5421 7.95112 10.7923 8.38455 11.2129 8.49724C11.6335 8.60993 12.0669 8.35969 12.1796 7.93913L13.4053 3.36476C13.4709 3.12005 13.4135 2.87098 13.2713 2.68328C13.1816 2.46111 12.9924 2.28212 12.7435 2.21544L8.16781 0.990535C7.74725 0.877847 7.31382 1.12809 7.20113 1.54865C7.08844 1.9692 7.33868 2.40264 7.75924 2.51533Z" fill="#C1EFBA"/>
</svg>
