<svg width="162" height="162" viewBox="0 0 162 162" fill="none" xmlns="http://www.w3.org/2000/svg">
<circle cx="81" cy="81" r="43.274" stroke="#D4DEEC" stroke-opacity="0.1"/>
<circle cx="81.0001" cy="81" r="61.0274" stroke="#D4DEEC" stroke-opacity="0.1"/>
<circle cx="81.0001" cy="81" r="78.7808" stroke="#D4DEEC" stroke-opacity="0.1"/>
<circle cx="81" cy="81" r="25.5205" stroke="#D4DEEC" stroke-opacity="0.1"/>
<path fill-rule="evenodd" clip-rule="evenodd" d="M39.9452 81H35.5068C35.5068 86.9742 36.6836 92.89 38.9698 98.4095C41.256 103.929 44.607 108.944 48.8315 113.169C53.0559 117.393 58.071 120.744 63.5905 123.03C69.11 125.316 75.0257 126.493 81 126.493L81 122.055C58.326 122.055 39.9452 103.674 39.9452 81Z" fill="#4EA7F9"/>
<path fill-rule="evenodd" clip-rule="evenodd" d="M56.7961 139.432C64.4695 142.611 72.6938 144.247 80.9995 144.247L80.9995 139.808C48.5211 139.808 22.1923 113.478 22.1923 81C22.1923 48.5214 48.5211 22.1923 80.9995 22.1917V17.7534C72.6938 17.7534 64.4695 19.3893 56.7961 22.5677C49.1227 25.7462 42.1504 30.4049 36.2774 36.2779C30.4044 42.1509 25.7457 49.1231 22.5673 56.7965C19.3889 64.47 17.7529 72.6943 17.7529 81C17.7529 89.3056 19.3889 97.53 22.5673 105.203C25.7457 112.877 30.4044 119.849 36.2774 125.722C42.1504 131.595 49.1227 136.254 56.7961 139.432Z" fill="#63E7B7"/>
<path fill-rule="evenodd" clip-rule="evenodd" d="M35.9989 148.349C49.3192 157.249 64.9798 162 81 162L81 157.562C38.7162 157.562 4.43836 123.284 4.43836 81C4.43836 38.7162 38.7162 4.4384 81 4.4384C123.284 4.4384 157.562 38.7162 157.562 81L162 81C162 64.9797 157.249 49.3192 148.349 35.9988C139.449 22.6784 126.798 12.2964 111.997 6.16573C97.1966 0.0350331 80.9102 -1.56904 65.1977 1.55637C49.4853 4.68177 35.0524 12.3963 23.7244 23.7243C12.3963 35.0524 4.68183 49.4852 1.55643 65.1977C-1.56897 80.9101 0.0350973 97.1965 6.1658 111.997C12.2965 126.798 22.6785 139.449 35.9989 148.349Z" fill="#D4DEEC"/>
<path fill-rule="evenodd" clip-rule="evenodd" d="M57.6986 81L53.2603 81C53.2603 88.357 56.1828 95.4127 61.385 100.615C66.5872 105.817 73.6429 108.74 81 108.74L81 104.301C68.131 104.301 57.6986 93.869 57.6986 81Z" fill="#E2FFBC"/>
</svg>
