<svg width="17" height="17" viewBox="0 0 17 17" fill="none" xmlns="http://www.w3.org/2000/svg">
<path fill-rule="evenodd" clip-rule="evenodd" d="M8.45127 1.19121C5.3883 1.19121 2.69502 3.12509 1.66897 5.92482L2.52092 5.55771C2.5928 5.52667 2.67009 5.51011 2.74838 5.50897C2.82666 5.50783 2.9044 5.52214 2.97715 5.55106C3.04991 5.57999 3.11624 5.62298 3.17237 5.67756C3.2285 5.73215 3.27332 5.79726 3.30426 5.86918C3.3352 5.94109 3.35167 6.01841 3.35271 6.09669C3.35375 6.17498 3.33935 6.2527 3.31034 6.32542C3.28132 6.39813 3.23825 6.46442 3.1836 6.52048C3.12894 6.57654 3.06378 6.62127 2.99182 6.65213L1.02931 7.4964C0.954987 7.52834 0.874938 7.5448 0.794044 7.54479C0.657319 7.54416 0.524971 7.49651 0.419224 7.40984C0.347682 7.3512 0.291262 7.27712 0.253744 7.19386C0.230724 7.15108 0.212954 7.10552 0.200929 7.05815C0.179296 6.97294 0.176797 6.88399 0.193611 6.79769C0.959333 2.85889 4.43095 0 8.45127 0C10.3884 0.000114101 12.2662 0.668516 13.7677 1.8924C15.2692 3.11629 16.3026 4.82071 16.6933 6.71803C16.725 6.87279 16.6939 7.03379 16.6069 7.16563C16.5199 7.29747 16.384 7.38934 16.2293 7.42103C16.0745 7.45272 15.9135 7.42164 15.7817 7.33462C15.6498 7.2476 15.558 7.11177 15.5263 6.95702C15.1906 5.32856 14.3035 3.86574 13.0146 2.81535C11.7257 1.76497 10.114 1.19133 8.45127 1.19121ZM7.24595 7.02664L5.11968 4.89922C5.06635 4.84771 5.02382 4.7861 4.99455 4.71797C4.96529 4.64985 4.94988 4.57658 4.94924 4.50244C4.9486 4.4283 4.96272 4.35477 4.9908 4.28615C5.01887 4.21753 5.06034 4.15518 5.11276 4.10275C5.16519 4.05033 5.22753 4.00887 5.29616 3.98079C5.36478 3.95271 5.43831 3.93859 5.51245 3.93923C5.58659 3.93987 5.65986 3.95528 5.72798 3.98454C5.79611 4.01381 5.85772 4.05634 5.90923 4.10967L8.49129 6.69174L11.0339 4.14913C11.0854 4.0958 11.147 4.05326 11.2151 4.024C11.2833 3.99474 11.3565 3.97933 11.4307 3.97869C11.5048 3.97804 11.5783 3.99217 11.647 4.02025C11.7156 4.04832 11.7779 4.08979 11.8304 4.14221C11.8828 4.19464 11.9242 4.25698 11.9523 4.32561C11.9804 4.39423 11.9945 4.46776 11.9939 4.5419C11.9932 4.61604 11.9778 4.68931 11.9486 4.75743C11.9193 4.82556 11.8768 4.88717 11.8234 4.93868L9.73548 7.02664H11.183C11.3311 7.02664 11.4731 7.08547 11.5779 7.19019C11.6826 7.2949 11.7414 7.43693 11.7414 7.58502C11.7414 7.73311 11.6826 7.87514 11.5779 7.97985C11.4731 8.08457 11.3311 8.1434 11.183 8.1434H9.02984V9.57322H11.183C11.3311 9.57322 11.4731 9.63205 11.5779 9.73676C11.6826 9.84148 11.7414 9.9835 11.7414 10.1316C11.7414 10.2797 11.6826 10.4217 11.5779 10.5264C11.4731 10.6311 11.3311 10.69 11.183 10.69H9.02984V13.0121C9.02984 13.0854 9.0154 13.158 8.98734 13.2258C8.95928 13.2935 8.91815 13.3551 8.8663 13.4069C8.81445 13.4588 8.75289 13.4999 8.68515 13.528C8.6174 13.556 8.54479 13.5705 8.47146 13.5705C8.39814 13.5705 8.32553 13.556 8.25778 13.528C8.19004 13.4999 8.12848 13.4588 8.07663 13.4069C8.02478 13.3551 7.98365 13.2935 7.95559 13.2258C7.92753 13.158 7.91309 13.0854 7.91309 13.0121V10.69H5.47342C5.32533 10.69 5.1833 10.6311 5.07858 10.5264C4.97387 10.4217 4.91504 10.2797 4.91504 10.1316C4.91504 9.9835 4.97387 9.84148 5.07858 9.73676C5.1833 9.63205 5.32533 9.57322 5.47342 9.57322H7.91309V8.1434H5.47342C5.32533 8.1434 5.1833 8.08457 5.07858 7.97985C4.97387 7.87514 4.91504 7.73311 4.91504 7.58502C4.91504 7.43693 4.97387 7.2949 5.07858 7.19019C5.1833 7.08547 5.32533 7.02664 5.47342 7.02664H7.24595ZM8.54843 17C6.61129 16.9999 4.73351 16.3315 3.23198 15.1076C1.73045 13.8837 0.697128 12.1793 0.306394 10.282C0.290702 10.2053 0.290256 10.1264 0.305083 10.0496C0.319909 9.97277 0.349717 9.89964 0.392805 9.83436C0.435892 9.76908 0.491415 9.71293 0.556204 9.66911C0.620993 9.62529 0.693779 9.59465 0.770406 9.57896C0.847033 9.56327 0.926001 9.56282 1.0028 9.57765C1.0796 9.59248 1.15273 9.62228 1.21801 9.66537C1.28328 9.70846 1.33944 9.76398 1.38326 9.82877C1.42708 9.89356 1.45771 9.96635 1.4734 10.043C1.80908 11.6714 2.6962 13.1343 3.98509 14.1846C5.27398 15.235 6.88574 15.8087 8.54843 15.8088C11.6113 15.8088 14.3044 13.8751 15.3303 11.0756L14.4788 11.4419C14.4045 11.474 14.3245 11.4906 14.2435 11.4907C14.1064 11.4908 13.9734 11.4436 13.867 11.357C13.7606 11.2704 13.6874 11.1497 13.6597 11.0154C13.632 10.881 13.6516 10.7412 13.715 10.6196C13.7784 10.498 13.8819 10.402 14.0079 10.3479L15.9704 9.5036C16.0424 9.47138 16.1202 9.45379 16.1991 9.45187C16.278 9.44994 16.3565 9.46372 16.43 9.4924C16.5035 9.52108 16.5706 9.56408 16.6274 9.61892C16.6842 9.67375 16.7295 9.73932 16.7607 9.81182C16.776 9.84731 16.7877 9.8841 16.7958 9.92168C16.8001 9.93703 16.8038 9.95256 16.8069 9.96824C16.8221 10.0454 16.8218 10.1249 16.8061 10.2019C16.0404 14.1411 12.5673 17 8.54843 17Z" fill="#E5F9E2"/>
</svg>
