<svg width="7" height="12" viewBox="0 0 7 12" fill="none" xmlns="http://www.w3.org/2000/svg">
<path d="M7 10.9831C7 11.2488 6.94913 11.4641 6.84738 11.629C6.74564 11.7939 6.61152 11.9038 6.44502 11.9588C6.27853 12.0137 6.09123 12.0137 5.88311 11.9588C5.67499 11.9038 5.46919 11.7847 5.2657 11.6015C4.43324 10.8595 3.61927 10.1449 2.82381 9.45784C2.02834 8.77077 1.28375 8.1066 0.590027 7.46533C0.405035 7.29128 0.261666 7.08744 0.159921 6.85384C0.0581753 6.62024 0.00498982 6.37976 0.000365466 6.13242C-0.00425937 5.88507 0.0350511 5.64689 0.118297 5.41786C0.201544 5.18884 0.331038 4.99646 0.50678 4.84072C0.904514 4.48345 1.3115 4.11243 1.72773 3.72767L2.97642 2.54591C3.39266 2.16115 3.80195 1.77868 4.20431 1.3985C4.60667 1.01832 4.99746 0.663335 5.3767 0.333541C5.55244 0.177805 5.73512 0.0770351 5.92473 0.0312304C6.11435 -0.0145743 6.28778 -0.0099938 6.44502 0.0449719C6.60227 0.0999375 6.73176 0.205288 6.83351 0.361024C6.93525 0.51676 6.98613 0.718301 6.98613 0.965646C6.98613 1.28628 6.98844 1.72829 6.99306 2.29169C6.99769 2.85509 7 3.47116 7 4.13991L7 6.20112L7 8.22111L7 9.9113L7 10.9831Z" fill="#DEF6E5"/>
</svg>
