<svg width="23" height="23" viewBox="0 0 23 23" fill="none" xmlns="http://www.w3.org/2000/svg">
<path fill-rule="evenodd" clip-rule="evenodd" d="M10.6988 6.64331C10.6988 6.26091 11.0114 5.9455 11.3966 5.9455C11.7818 5.9455 12.0944 6.26091 12.0944 6.64331V11.514H16.6471C17.0323 11.514 17.3449 11.8294 17.3449 12.2118C17.3449 12.5942 17.0323 12.9096 16.6471 12.9096H11.3989C11.3981 12.9097 11.3974 12.9097 11.3966 12.9097C11.3445 12.9097 11.2937 12.9039 11.2447 12.8929C11.1846 12.8794 11.1274 12.8581 11.0741 12.8301C10.8519 12.7134 10.6988 12.4802 10.6988 12.2118V6.64331ZM20.189 0.591896L21.3725 4.43544C21.54 4.98252 21.1241 5.5324 20.5547 5.51844L16.5325 5.42912C15.8486 5.41237 15.469 4.63083 15.8821 4.08653L16.7882 2.88821C16.7773 2.88232 16.7665 2.87611 16.7558 2.86959C15.1788 1.90382 13.3589 1.39581 11.4999 1.39581C5.9286 1.39581 1.39562 5.92879 1.39562 11.5001C1.39562 17.0714 5.9286 21.6044 11.4999 21.6044C17.0712 21.6044 21.6042 17.0714 21.6042 11.5001C21.6042 11.1763 21.5875 10.8498 21.5568 10.5288C21.5205 10.1464 21.8024 9.80303 22.1848 9.76675C22.5672 9.73046 22.9105 10.0124 22.9468 10.3948C22.9803 10.7604 22.9998 11.1317 22.9998 11.5001C22.9998 13.052 22.6956 14.5593 22.0955 15.9773C21.5149 17.3478 20.6859 18.5759 19.6308 19.6338C18.5757 20.6889 17.3448 21.5179 15.9743 22.0985C14.5591 22.6958 13.0519 23 11.4999 23C9.94799 23 8.44072 22.6958 7.02277 22.0957C5.65227 21.5151 4.42412 20.6861 3.36624 19.631C2.31115 18.5759 1.48215 17.345 0.901572 15.9745C0.304246 14.5593 0 13.052 0 11.5001C0 9.94818 0.304245 8.44091 0.904363 7.02296C1.48494 5.65246 2.31394 4.42431 3.36903 3.36643C4.42412 2.31134 5.65506 1.48234 7.02556 0.901759C8.44072 0.304433 9.94799 0.000187537 11.4999 0.000187537C13.6157 0.000187537 15.6868 0.580766 17.4843 1.67772C17.5355 1.70893 17.5812 1.74566 17.6211 1.78667L18.7208 0.332311C19.1311 -0.211982 19.9881 -0.0612546 20.189 0.591896ZM10.7462 20.1892C10.7462 19.8068 11.0589 19.4914 11.4441 19.4914C11.8292 19.4914 12.1419 19.804 12.1419 20.1892V20.5102C12.1419 20.8926 11.8265 21.208 11.4441 21.208C11.0617 21.208 10.7462 20.8954 10.7462 20.5102V20.1892ZM10.7183 2.57647C10.7183 2.19407 11.031 1.87866 11.4161 1.87866C11.8013 1.87866 12.114 2.19128 12.114 2.57647V2.89746C12.114 3.27986 11.7985 3.59527 11.4161 3.59527C11.0337 3.59527 10.7183 3.28265 10.7183 2.89746V2.57647ZM2.61814 11.5978H2.93914C3.32154 11.5978 3.63695 11.9132 3.63695 12.2956C3.63695 12.678 3.32433 12.9934 2.93914 12.9934H2.61814C2.23574 12.9934 1.92033 12.678 1.92033 12.2956C1.92033 11.9132 2.23295 11.5978 2.61814 11.5978ZM19.9797 11.5978H20.3286C20.711 11.5978 21.0264 11.9132 21.0264 12.2956C21.0264 12.678 20.7138 12.9934 20.3286 12.9934H19.9797C19.5973 12.9934 19.2819 12.678 19.2819 12.2956C19.2819 11.9132 19.5945 11.5978 19.9797 11.5978Z" fill="#DEF6E5"/>
</svg>
