<svg width="42" height="42" viewBox="0 0 42 42" fill="none" xmlns="http://www.w3.org/2000/svg">
<path d="M0.862915 20.9137C0.862915 26.2372 2.97766 31.3426 6.74193 35.1069C10.5062 38.8712 15.6117 40.9859 20.9351 40.9859C26.2586 40.9859 31.3641 38.8712 35.1283 35.1069C38.8926 31.3426 41.0074 26.2372 41.0074 20.9137C41.0074 15.5902 38.8926 10.4847 35.1283 6.72048C31.3641 2.95621 26.2586 0.841461 20.9351 0.841461C15.6117 0.841461 10.5062 2.95621 6.74193 6.72048C2.97766 10.4847 0.862915 15.5902 0.862915 20.9137Z" fill="#DEF6E5"/>
<path d="M11.4501 15.885C11.4493 15.8395 11.4466 15.794 11.4421 15.7487C11.393 15.2992 11.1674 14.8875 10.8148 14.6043C10.4622 14.3211 10.0115 14.1896 9.56196 14.2386C9.3725 14.2596 9.18792 14.3124 9.01596 14.3947C8.78265 13.7308 8.15202 13.2542 7.40862 13.2542C7.12368 13.2541 6.8433 13.3256 6.59315 13.4621C6.34301 13.5985 6.1311 13.7956 5.97684 14.0351C5.96676 14.0349 5.9571 14.0337 5.94702 14.0337C5.49477 14.0337 5.06105 14.2133 4.74126 14.5331C4.42148 14.8529 4.24182 15.2866 4.24182 15.7389C4.24182 15.7882 4.24518 15.8367 4.24917 15.885H11.4501Z" fill="white"/>
<path d="M34.1717 22.5874C34.17 22.5139 34.1677 22.4404 34.1612 22.366C34.027 20.8454 32.9218 19.7473 31.6926 19.9134C31.4364 19.9481 31.1962 20.0373 30.9757 20.1669C30.6695 19.0888 29.8415 18.3143 28.8652 18.3143C28.0764 18.3143 27.3843 18.8202 26.9855 19.5829C26.9722 19.5827 26.9594 19.5804 26.9462 19.5804C25.7097 19.5804 24.7074 20.8204 24.7074 22.3501C24.7074 22.4303 24.7116 22.509 24.7171 22.5874H34.1717ZM30.2978 9.52391C30.2968 9.46829 30.2935 9.41274 30.2881 9.35737C30.1634 8.21393 29.135 7.388 27.9916 7.51295C27.7601 7.53866 27.5347 7.60312 27.3246 7.70363C27.0397 6.89282 26.2694 6.31049 25.3611 6.31049C24.6272 6.31049 23.9833 6.69101 23.6122 7.26452C23.6001 7.26431 23.5881 7.26263 23.5757 7.26263C22.4253 7.26263 21.4929 8.19524 21.4929 9.3454C21.4929 9.40567 21.4969 9.4649 21.5019 9.52391H30.2978Z" fill="white"/>
<path d="M2.60132 28.9409C7.66148 39.3145 16.1488 40.9861 20.8829 40.9861C21.4404 40.9861 34.0188 29.829 34.565 29.7843L17.1917 13.3665L2.60132 28.9409Z" fill="#345D3D"/>
<path d="M38.9508 29.6154C33.8907 39.0612 25.7212 40.9859 20.9872 40.9859C20.4297 40.9859 14.3806 40.3544 12.2441 39.005L28.493 20.2541L38.9508 29.6154ZM11.4568 19.4529L17.1917 13.3665L23.264 19.1577L19.1737 18.4409L17.3605 20.0854L14.9146 18.736L11.4568 19.4529Z" fill="#4DB45D"/>
<path d="M28.4929 20.2541L23.3063 26.3265L26.8483 25.6939L28.5351 27.212L31.1496 25.23L35.0291 26.1156L28.4929 20.2541Z" fill="#DEF6E5"/>
</svg>
