<svg width="29" height="25" viewBox="0 0 29 25" fill="none" xmlns="http://www.w3.org/2000/svg">
<path fill-rule="evenodd" clip-rule="evenodd" d="M25.9484 12.4641V23.1914H28.9926V24.9309H0V23.1914H2.89927V7.24542C2.89975 7.09208 2.94077 6.94159 3.01816 6.80921C3.09555 6.67683 3.20656 6.56726 3.33994 6.49162L14.5717 0.113225C14.7038 0.0382923 14.8533 -0.000740499 15.0051 1.06397e-05C15.157 0.000761779 15.3061 0.0412707 15.4374 0.117507C15.5688 0.193743 15.6779 0.303048 15.7539 0.434546C15.8299 0.566044 15.8701 0.715151 15.8706 0.86703V5.60445L25.5425 11.7277C25.6669 11.8061 25.7694 11.9148 25.8404 12.0436C25.9113 12.1724 25.9485 12.3171 25.9484 12.4641ZM4.63883 7.74991V23.1914L14.1368 23.1856V2.35728L4.63883 7.74991ZM15.8764 7.68032V23.1914L24.2147 23.203V12.957L15.8764 7.68032ZM7.34097 10.9913H12.1016C12.3322 10.9913 12.5535 11.0829 12.7166 11.2461C12.8797 11.4092 12.9713 11.6304 12.9713 11.8611C12.9713 12.0917 12.8797 12.313 12.7166 12.4761C12.5535 12.6392 12.3322 12.7308 12.1016 12.7308H7.34097C7.1103 12.7308 6.88907 12.6392 6.72595 12.4761C6.56284 12.313 6.4712 12.0917 6.4712 11.8611C6.4712 11.6304 6.56284 11.4092 6.72595 11.2461C6.88907 11.0829 7.1103 10.9913 7.34097 10.9913ZM7.34097 16.7434H12.1016C12.3322 16.7434 12.5535 16.8351 12.7166 16.9982C12.8797 17.1613 12.9713 17.3825 12.9713 17.6132C12.9713 17.8439 12.8797 18.0651 12.7166 18.2282C12.5535 18.3914 12.3322 18.483 12.1016 18.483H7.34097C7.11029 18.483 6.88906 18.3914 6.72594 18.2282C6.56283 18.0651 6.47119 17.8439 6.47119 17.6132C6.47119 17.3825 6.56283 17.1613 6.72594 16.9982C6.88906 16.8351 7.11029 16.7434 7.34097 16.7434ZM18.7699 16.7434H22.0576C22.2883 16.7434 22.5096 16.8351 22.6727 16.9982C22.8358 17.1613 22.9274 17.3825 22.9274 17.6132C22.9274 17.8439 22.8358 18.0651 22.6727 18.2282C22.5096 18.3914 22.2883 18.483 22.0576 18.483H18.7699C18.5392 18.483 18.318 18.3914 18.1548 18.2282C17.9917 18.0651 17.9001 17.8439 17.9001 17.6132C17.9001 17.3825 17.9917 17.1613 18.1548 16.9982C18.318 16.8351 18.5392 16.7434 18.7699 16.7434Z" fill="#DEF6E5"/>
</svg>
