<svg width="45" height="43" viewBox="0 0 45 43" fill="none" xmlns="http://www.w3.org/2000/svg">
<path d="M28.3956 18.4393C28.5974 18.4393 28.7971 18.479 28.9835 18.5561C29.1699 18.6333 29.3392 18.7464 29.4819 18.8891C29.6246 19.0317 29.7377 19.2011 29.8149 19.3874C29.8921 19.5738 29.9319 19.7736 29.9319 19.9753C29.9319 20.177 29.8921 20.3768 29.8149 20.5631C29.7377 20.7495 29.6246 20.9189 29.4819 21.0615C29.3392 21.2041 29.1699 21.3173 28.9835 21.3944C28.7971 21.4716 28.5974 21.5113 28.3956 21.5113H23.6211V24.5833H28.3956C28.6006 24.5774 28.8047 24.6127 28.9959 24.687C29.187 24.7614 29.3613 24.8734 29.5084 25.0163C29.6555 25.1592 29.7724 25.3302 29.8522 25.5191C29.9321 25.708 29.9732 25.911 29.9732 26.1161C29.9732 26.3212 29.9321 26.5242 29.8522 26.7131C29.7724 26.902 29.6555 27.073 29.5084 27.2159C29.3613 27.3588 29.187 27.4708 28.9959 27.5452C28.8047 27.6195 28.6006 27.6548 28.3956 27.6489H23.6211V32.215C23.6211 32.6324 23.4552 33.0328 23.16 33.328C22.8648 33.6233 22.4644 33.7891 22.0469 33.7891C21.6294 33.7891 21.229 33.6233 20.9338 33.328C20.6386 33.0328 20.4728 32.6324 20.4728 32.215V27.6489H15.8076C15.6026 27.6548 15.3984 27.6195 15.2073 27.5452C15.0162 27.4708 14.8419 27.3588 14.6948 27.2159C14.5477 27.073 14.4308 26.902 14.3509 26.7131C14.2711 26.5242 14.23 26.3212 14.23 26.1161C14.23 25.911 14.2711 25.708 14.3509 25.5191C14.4308 25.3302 14.5477 25.1592 14.6948 25.0163C14.8419 24.8734 15.0162 24.7614 15.2073 24.687C15.3984 24.6127 15.6026 24.5774 15.8076 24.5833H20.4728V21.5113H15.8076C15.6058 21.5113 15.4061 21.4716 15.2197 21.3944C15.0333 21.3173 14.8639 21.2041 14.7213 21.0615C14.5786 20.9189 14.4655 20.7495 14.3882 20.5631C14.311 20.3768 14.2713 20.177 14.2713 19.9753C14.2713 19.7736 14.311 19.5738 14.3882 19.3874C14.4655 19.2011 14.5786 19.0317 14.7213 18.8891C14.8639 18.7464 15.0333 18.6333 15.2197 18.5561C15.4061 18.479 15.6058 18.4393 15.8076 18.4393H20.4728V18.1545L14.6492 12.4631C14.5055 12.3204 14.3919 12.1503 14.3153 11.9627C14.2387 11.7752 14.2007 11.5742 14.2034 11.3717C14.2061 11.1692 14.2496 10.9692 14.3312 10.7839C14.4128 10.5985 14.5309 10.4314 14.6784 10.2926C14.9773 10.0047 15.3761 9.84382 15.791 9.84382C16.206 9.84382 16.6048 10.0047 16.9036 10.2926L22.1982 15.4461L27.1978 10.3206C27.4885 10.0254 27.8824 9.85453 28.2966 9.8441C28.7107 9.83366 29.1128 9.98445 29.4179 10.2647C29.5661 10.4029 29.685 10.5695 29.7675 10.7545C29.85 10.9396 29.8945 11.1393 29.8983 11.3419C29.9021 11.5445 29.8651 11.7458 29.7896 11.9338C29.7141 12.1219 29.6015 12.2928 29.4586 12.4364L23.6223 18.3783V18.4406H28.3969L28.3956 18.4393ZM44.0875 21.5113C44.0875 33.3619 34.1976 43 22.0469 43C9.89625 43 0 33.3657 0 21.5113C0 9.65689 9.89625 0.0136659 22.0634 0.0251096H22.6064C22.8112 0.021746 23.0146 0.0589058 23.205 0.134451C23.3954 0.209997 23.5689 0.322438 23.7157 0.465306C23.8625 0.608173 23.9796 0.778649 24.0602 0.966927C24.1408 1.1552 24.1835 1.35757 24.1856 1.56238C24.1779 1.97394 24.0074 2.36566 23.7113 2.65167C23.4153 2.93769 23.018 3.09467 22.6064 3.08821H22.0469C11.6319 3.08821 3.15464 11.3531 3.15464 21.5113C3.15464 31.6695 11.6433 39.9305 22.052 39.9305C32.4607 39.9305 40.9443 31.6657 40.9443 21.5113V21.4274C40.9443 21.0129 41.1089 20.6154 41.402 20.3224C41.695 20.0293 42.0925 19.8647 42.507 19.8647C42.9214 19.8647 43.3189 20.0293 43.612 20.3224C43.905 20.6154 44.0697 21.0129 44.0697 21.4274V20.3974C44.0824 20.7611 44.0875 21.1311 44.0875 21.5113ZM42.507 8.75411H38.2919V12.8382C38.2802 13.2495 38.1086 13.64 37.8136 13.9267C37.5186 14.2135 37.1234 14.3739 36.712 14.3739C36.3006 14.3739 35.9054 14.2135 35.6104 13.9267C35.3154 13.64 35.1438 13.2495 35.1321 12.8382V8.75411H30.9107C30.5026 8.75411 30.1113 8.59201 29.8228 8.30348C29.5342 8.01495 29.3722 7.62361 29.3722 7.21556C29.3722 6.80752 29.5342 6.41618 29.8228 6.12765C30.1113 5.83912 30.5026 5.67702 30.9107 5.67702H35.1321V1.53568C35.1438 1.12443 35.3154 0.733939 35.6104 0.447181C35.9054 0.160423 36.3006 0 36.712 0C37.1234 0 37.5186 0.160423 37.8136 0.447181C38.1086 0.733939 38.2802 1.12443 38.2919 1.53568V5.67702H42.507C42.915 5.67702 43.3063 5.83912 43.5949 6.12765C43.8834 6.41618 44.0455 6.80752 44.0455 7.21556C44.0455 7.62361 43.8834 8.01495 43.5949 8.30348C43.3063 8.59201 42.915 8.75411 42.507 8.75411Z" fill="white"/>
</svg>
