<svg width="14" height="14" viewBox="0 0 14 14" fill="none" xmlns="http://www.w3.org/2000/svg">
<g clip-path="url(#clip0_61_4659)">
<path d="M6.4165 9.33333V0.583333C6.4165 0.2625 6.679 0 6.99984 0C7.32067 0 7.58317 0.2625 7.58317 0.583333V9.33333C7.58317 9.65417 7.32067 9.91667 6.99984 9.91667C6.679 9.91667 6.4165 9.65417 6.4165 9.33333" fill="white"/>
<path d="M3.09253 3.66485L6.58728 0.169984C6.69687 0.0609957 6.84514 -0.000183105 6.9997 -0.000183105C7.15425 -0.000183105 7.30253 0.0609957 7.41211 0.169984C7.63903 0.396901 7.63903 0.768484 7.41211 0.994817L3.91736 4.48968C3.80778 4.59867 3.6595 4.65985 3.50495 4.65985C3.35039 4.65985 3.20212 4.59867 3.09253 4.48968C2.98354 4.3801 2.92236 4.23182 2.92236 4.07727C2.92236 3.92271 2.98354 3.77444 3.09253 3.66485" fill="white"/>
<path d="M7.4109 0.170117L10.9057 3.66487C11.0146 3.77445 11.0758 3.92273 11.0758 4.07728C11.0758 4.23184 11.0146 4.38011 10.9057 4.4897C10.6787 4.71673 10.3071 4.71673 10.0808 4.4897L6.58607 0.995183C6.47708 0.885596 6.4159 0.737323 6.4159 0.582767C6.4159 0.42821 6.47708 0.279937 6.58607 0.17035C6.69565 0.0613619 6.84393 0.000183105 6.99848 0.000183105C7.15304 0.000183105 7.30131 0.0613619 7.4109 0.17035V0.170117ZM12.25 14H1.75C0.785167 14 0 13.2148 0 12.25V8.75002C0 8.42743 0.26075 8.16668 0.583333 8.16668C0.905917 8.16668 1.16667 8.42743 1.16667 8.75002V12.25C1.16667 12.572 1.428 12.8333 1.75 12.8333H12.25C12.572 12.8333 12.8333 12.572 12.8333 12.25V8.75002C12.8333 8.42743 13.0941 8.16668 13.4167 8.16668C13.7392 8.16668 14 8.42743 14 8.75002V12.25C14 13.2148 13.2148 14 12.25 14" fill="white"/>
</g>
<defs>
<clipPath id="clip0_61_4659">
<rect width="14" height="14" fill="white"/>
</clipPath>
</defs>
</svg>
