<svg width="13" height="17" viewBox="0 0 13 17" fill="none" xmlns="http://www.w3.org/2000/svg">
<path d="M12.0281 0C11.0899 0.966947 7.61788 2.09289 5.90792 2.7883C4.34652 3.42325 -0.13117 5.72581 0.00294884 10.1556C0.137067 14.5855 2.57967 15.4933 2.19996 17C2.19996 17 3.00492 16.5696 3.94215 16.1005C7.06795 14.5358 8.1421 15.1395 10.1518 13.447C12.1731 11.7448 14.2839 9.78169 12.0281 1.88253e-05L12.0281 0ZM11.626 9.84923C10.7773 12.7724 8.07578 13.4273 6.16345 14.064C5.33109 14.3411 4.51651 14.7683 3.90033 15.1332C3.99388 14.0745 4.71672 12.6998 6.39923 12.1878C8.01795 11.695 8.96478 10.7494 9.22263 10.464C8.69351 10.9286 5.93146 11.6851 5.59514 11.5582C5.23768 11.4232 5.42617 9.81484 6.71184 9.62426C8.58912 9.34614 9.85158 8.0868 9.85158 8.0868C9.85158 8.0868 6.46627 9.44444 6.71184 8.76973C7.19938 7.43155 9.5388 5.09858 9.5388 5.09858C7.79658 5.6607 4.67937 10.1865 4.29965 10.5238C3.91986 10.8611 3.70611 7.93211 3.38004 7.32302C2.76379 6.17174 3.74118 11.4907 3.71883 12.5025C3.70206 13.2626 3.0552 14.7332 2.73432 15.4181C2.47326 14.7869 1.72433 14.554 1.12785 12.0979C-0.227155 6.51826 4.09854 4.67727 6.66728 3.64281C9.2359 2.60847 11.4473 1.57402 11.4473 1.57402C11.4473 1.57402 12.4748 6.92589 11.626 9.84923ZM9.29492 10.3805C9.29492 10.3805 9.27075 10.4108 9.22261 10.464C9.25574 10.435 9.28045 10.407 9.29492 10.3805Z" fill="#E5F9E2"/>
</svg>
