<svg width="19" height="21" viewBox="0 0 19 21" fill="none" xmlns="http://www.w3.org/2000/svg">
<path d="M9.53656 20.1202C8.53812 20.1202 7.72703 19.2873 7.72703 18.2621H6.87025C6.87025 19.7706 8.06518 21 9.53656 21C11.0057 21 12.2029 19.773 12.2029 18.2621H11.3461C11.3461 19.285 10.535 20.1202 9.53656 20.1202ZM17.211 14.0203H16.2606V8.75567C16.2606 6.91867 15.5592 5.18724 14.2866 3.87811C13.6697 3.24467 12.9568 2.75198 12.1846 2.40945C12.0269 1.0534 10.9006 0 9.53884 0C8.17713 0 7.05075 1.0534 6.8931 2.40945C6.11857 2.75198 5.40572 3.24701 4.79113 3.87811C3.51852 5.1849 2.8171 6.91867 2.8171 8.75567V14.0203H1.78439C0.799663 14.0203 0 14.8438 0 15.8526V15.8996C0 16.9107 0.801948 17.7319 1.78439 17.7319H17.2156C18.2003 17.7319 19 16.9084 19 15.8996V15.8526C18.9977 14.8438 18.1958 14.0203 17.211 14.0203ZM9.53656 0.877444C10.3065 0.877444 10.9645 1.37247 11.225 2.06927C10.6789 1.92381 10.1123 1.84873 9.53656 1.84873C8.95851 1.84873 8.39418 1.92381 7.84812 2.06927C8.10859 1.37482 8.76659 0.877444 9.53656 0.877444V0.877444ZM18.1409 15.9019C18.1409 16.4274 17.7251 16.8568 17.211 16.8568H1.77982C1.26804 16.8568 0.849928 16.4298 0.849928 15.9019V15.855C0.849928 15.3295 1.26575 14.9001 1.77982 14.9001L3.66703 14.8978V14.4286H3.66931V8.75567C3.66931 5.43358 6.30135 2.73087 9.53656 2.73087C12.7718 2.73087 15.4038 5.43358 15.4038 8.75567V14.4286H15.4061V14.9001H17.211C17.7228 14.9001 18.1409 15.3271 18.1409 15.855V15.9019V15.9019Z" fill="#DEF6E5"/>
</svg>
