<svg width="14" height="10" viewBox="0 0 14 10" fill="none" xmlns="http://www.w3.org/2000/svg">
<path fill-rule="evenodd" clip-rule="evenodd" d="M10.6548 3.41226L11.4257 6.28931L1.19969 0.385321C0.822316 0.167445 0.339215 0.296891 0.121338 0.674265C-0.0965388 1.05164 0.0329077 1.53474 0.410281 1.75262L10.6363 7.6566L7.75924 8.4275C7.33868 8.54019 7.08844 8.97362 7.20113 9.39418C7.31382 9.81474 7.74725 10.065 8.16781 9.95229L12.7422 8.7266C12.9869 8.66103 13.1739 8.48686 13.2654 8.26982C13.4129 8.08107 13.4733 7.82771 13.4066 7.57886L12.1796 3.0037C12.0669 2.58314 11.6335 2.3329 11.2129 2.44559C10.7923 2.55827 10.5421 2.99171 10.6548 3.41226Z" fill="#FD606C"/>
</svg>
