<svg width="17" height="17" viewBox="0 0 17 17" fill="none" xmlns="http://www.w3.org/2000/svg">
<path opacity="0.6" d="M13.4583 3.4636C13.9234 3.4636 14.384 3.55665 14.8137 3.73744C15.2434 3.91823 15.6338 4.18321 15.9627 4.51726C16.2915 4.85132 16.5524 5.24789 16.7304 5.68435C16.9084 6.12081 17 6.58861 17 7.06103V9.21949H15.5833V7.06103C15.5833 6.48857 15.3595 5.93956 14.9609 5.53477C14.5624 5.12998 14.0219 4.90257 13.4583 4.90257H0.708333C0.558284 4.90244 0.412153 4.85391 0.291006 4.76399C0.169859 4.67406 0.079957 4.54738 0.03426 4.4022C-0.011437 4.25703 -0.0105677 4.10087 0.0367426 3.95624C0.0840529 3.8116 0.17536 3.68596 0.2975 3.59743L5.25442 0L6.07608 1.17132L2.91692 3.4636H13.4569H13.4583ZM3.54167 13.5364C3.07657 13.5364 2.61602 13.4433 2.18633 13.2626C1.75663 13.0818 1.3662 12.8168 1.03733 12.4827C0.708456 12.1487 0.447579 11.7521 0.269593 11.3156C0.0916079 10.8792 -2.18015e-09 10.4114 0 9.93897V7.78051H1.41667V9.93897C1.41667 10.5114 1.64055 11.0604 2.03906 11.4652C2.43758 11.87 2.97808 12.0974 3.54167 12.0974H16.2917C16.4417 12.0976 16.5878 12.1461 16.709 12.236C16.8301 12.3259 16.92 12.4526 16.9657 12.5978C17.0114 12.743 17.0106 12.8991 16.9633 13.0438C16.9159 13.1884 16.8246 13.314 16.7025 13.4026L11.7442 17L10.9225 15.8287L14.0817 13.5364H3.54025H3.54167Z" fill="#DEF6E5"/>
</svg>
