<svg width="39" height="16" viewBox="0 0 39 16" fill="none" xmlns="http://www.w3.org/2000/svg">
<rect opacity="0.6" width="39" height="16" rx="2" fill="#DEF6E5"/>
<path d="M7.63998 5.07C7.75998 5.29 7.89664 5.56334 8.04998 5.89C8.20998 6.21 8.37331 6.56 8.53998 6.94C8.71331 7.31334 8.88331 7.69667 9.04998 8.09C9.21664 8.48334 9.37331 8.85334 9.51998 9.2C9.66664 8.85334 9.82331 8.48334 9.98998 8.09C10.1566 7.69667 10.3233 7.31334 10.49 6.94C10.6633 6.56 10.8266 6.21 10.98 5.89C11.14 5.56334 11.28 5.29 11.4 5.07H12.82C12.8866 5.53 12.9466 6.04667 13 6.62C13.06 7.18667 13.11 7.78 13.15 8.4C13.1966 9.01334 13.2366 9.63 13.27 10.25C13.31 10.87 13.3433 11.4533 13.37 12H11.85C11.83 11.3267 11.8033 10.5933 11.77 9.8C11.7366 9.00667 11.6866 8.20667 11.62 7.4C11.5 7.68 11.3666 7.99 11.22 8.33C11.0733 8.67 10.9266 9.01 10.78 9.35C10.64 9.69 10.5033 10.0167 10.37 10.33C10.2366 10.6367 10.1233 10.9 10.03 11.12H8.93998C8.84664 10.9 8.73331 10.6367 8.59998 10.33C8.46664 10.0167 8.32664 9.69 8.17998 9.35C8.03998 9.01 7.89664 8.67 7.74998 8.33C7.60331 7.99 7.46998 7.68 7.34998 7.4C7.28331 8.20667 7.23331 9.00667 7.19998 9.8C7.16664 10.5933 7.13998 11.3267 7.11998 12H5.59998C5.62664 11.4533 5.65664 10.87 5.68998 10.25C5.72998 9.63 5.76998 9.01334 5.80998 8.4C5.85664 7.78 5.90664 7.18667 5.95998 6.62C6.01998 6.04667 6.08331 5.53 6.14998 5.07H7.63998Z" fill="#DEF6E5"/>
<path d="M16.0846 8.53C16.0846 8.87 16.1246 9.17667 16.2046 9.45C16.2913 9.72334 16.4113 9.96 16.5646 10.16C16.7246 10.3533 16.9179 10.5033 17.1446 10.61C17.3713 10.7167 17.6313 10.77 17.9246 10.77C18.2113 10.77 18.4679 10.7167 18.6946 10.61C18.9279 10.5033 19.1213 10.3533 19.2746 10.16C19.4346 9.96 19.5546 9.72334 19.6346 9.45C19.7213 9.17667 19.7646 8.87 19.7646 8.53C19.7646 8.19 19.7213 7.88334 19.6346 7.61C19.5546 7.33 19.4346 7.09334 19.2746 6.9C19.1213 6.7 18.9279 6.54667 18.6946 6.44C18.4679 6.33334 18.2113 6.28 17.9246 6.28C17.6313 6.28 17.3713 6.33667 17.1446 6.45C16.9179 6.55667 16.7246 6.71 16.5646 6.91C16.4113 7.10334 16.2913 7.34 16.2046 7.62C16.1246 7.89334 16.0846 8.19667 16.0846 8.53ZM21.3746 8.53C21.3746 9.12334 21.2846 9.64667 21.1046 10.1C20.9313 10.5467 20.6913 10.9233 20.3846 11.23C20.0779 11.53 19.7113 11.7567 19.2846 11.91C18.8646 12.0633 18.4113 12.14 17.9246 12.14C17.4513 12.14 17.0046 12.0633 16.5846 11.91C16.1646 11.7567 15.7979 11.53 15.4846 11.23C15.1713 10.9233 14.9246 10.5467 14.7446 10.1C14.5646 9.64667 14.4746 9.12334 14.4746 8.53C14.4746 7.93667 14.5679 7.41667 14.7546 6.97C14.9413 6.51667 15.1913 6.13667 15.5046 5.83C15.8246 5.52334 16.1913 5.29334 16.6046 5.14C17.0246 4.98667 17.4646 4.91 17.9246 4.91C18.3979 4.91 18.8446 4.98667 19.2646 5.14C19.6846 5.29334 20.0513 5.52334 20.3646 5.83C20.6779 6.13667 20.9246 6.51667 21.1046 6.97C21.2846 7.41667 21.3746 7.93667 21.3746 8.53Z" fill="#DEF6E5"/>
<path d="M24.705 4.99C25.745 4.99 26.5416 5.17667 27.095 5.55C27.6483 5.91667 27.925 6.49 27.925 7.27C27.925 7.75667 27.8116 8.15334 27.585 8.46C27.365 8.76 27.045 8.99667 26.625 9.17C26.765 9.34334 26.9116 9.54334 27.065 9.77C27.2183 9.99 27.3683 10.2233 27.515 10.47C27.6683 10.71 27.815 10.9633 27.955 11.23C28.095 11.49 28.225 11.7467 28.345 12H26.595C26.4683 11.7733 26.3383 11.5433 26.205 11.31C26.0783 11.0767 25.945 10.85 25.805 10.63C25.6716 10.41 25.5383 10.2033 25.405 10.01C25.2716 9.81 25.1383 9.63 25.005 9.47H24.235V12H22.675V5.17C23.015 5.10334 23.365 5.05667 23.725 5.03C24.0916 5.00334 24.4183 4.99 24.705 4.99ZM24.795 6.32C24.6816 6.32 24.5783 6.32334 24.485 6.33C24.3983 6.33667 24.315 6.34334 24.235 6.35V8.23H24.675C25.2616 8.23 25.6816 8.15667 25.935 8.01C26.1883 7.86334 26.315 7.61334 26.315 7.26C26.315 6.92 26.185 6.68 25.925 6.54C25.6716 6.39334 25.295 6.32 24.795 6.32Z" fill="#DEF6E5"/>
<path d="M29.3449 12V5.07H34.0249V6.38H30.9049V7.74H33.6749V9.02H30.9049V10.69H34.2549V12H29.3449Z" fill="#DEF6E5"/>
</svg>
