<svg width="25" height="24" viewBox="0 0 25 24" fill="none" xmlns="http://www.w3.org/2000/svg">
<path d="M11.9633 19.8881L12.4816 20.4564L13.006 19.8941C13.0796 19.8151 14.8583 17.9035 16.6677 15.4783C19.1548 12.1413 20.4183 9.54894 20.4183 7.77409C20.4183 5.69837 19.6026 3.74421 18.1213 2.27631C16.6401 0.808408 14.6682 0 12.5736 0C10.479 0 8.50405 0.808408 7.02282 2.27631C5.54159 3.74421 4.72583 5.69837 4.72583 7.77409C4.72583 9.5459 5.95866 12.1352 8.38751 15.4722C10.1509 17.8974 11.8897 19.809 11.9633 19.8881ZM6.13346 7.77409C6.13346 4.25782 9.01926 1.398 12.5675 1.398C16.1157 1.398 19.0015 4.25782 19.0015 7.77409C19.0015 8.54907 18.6488 9.60669 17.9557 10.9105C17.373 12.0046 16.5604 13.2597 15.533 14.6364C14.3462 16.2289 13.1501 17.6178 12.4877 18.3655C11.8407 17.6209 10.6784 16.2381 9.52527 14.6547C8.52245 13.2749 7.7251 12.0198 7.15469 10.9226C6.48001 9.61276 6.13346 8.55211 6.13346 7.77409ZM22.933 18.2743C21.8413 17.8184 20.2987 17.4416 18.474 17.1802L18.2747 18.563C19.9828 18.8061 21.4027 19.1496 22.3871 19.5598C23.3838 19.9762 23.5893 20.3227 23.5893 20.3926C23.5893 20.5232 23.071 21.1797 20.6698 21.7723C18.4955 22.3072 15.5943 22.605 12.5 22.605C9.40567 22.605 6.50454 22.3102 4.33023 21.7723C1.93204 21.1797 1.4107 20.5232 1.4107 20.3926C1.4107 20.3227 1.6131 19.9762 2.60366 19.5629C3.58194 19.1526 4.99571 18.8092 6.69468 18.566L6.49227 17.1832C4.6737 17.4416 3.14033 17.8215 2.05471 18.2743C0.690015 18.8456 0 19.5568 0 20.3926C0 21.049 0.429342 21.6356 1.27576 22.1279C1.92897 22.5078 2.84286 22.8451 3.98982 23.1278C6.27147 23.69 9.2922 24 12.5 24C15.7078 24 18.7285 23.69 21.0102 23.1278C22.1602 22.8451 23.071 22.5078 23.7242 22.1279C24.5707 21.6356 25 21.052 25 20.3926C25 19.5598 24.3039 18.8456 22.933 18.2743ZM12.4816 10.406C13.9536 10.406 15.1497 9.22072 15.1497 7.76193C15.1497 6.30315 13.9536 5.11789 12.4816 5.11789C11.0096 5.11789 9.81354 6.30315 9.81354 7.76193C9.81354 9.22072 11.0126 10.406 12.4816 10.406ZM12.4816 6.51589C13.1747 6.51589 13.739 7.07509 13.739 7.76193C13.739 8.44878 13.1747 9.00798 12.4816 9.00798C11.7885 9.00798 11.2242 8.44878 11.2242 7.76193C11.2242 7.07509 11.7885 6.51589 12.4816 6.51589Z" fill="#DEF6E5"/>
</svg>
