<svg width="45" height="45" viewBox="0 0 45 45" fill="none" xmlns="http://www.w3.org/2000/svg">
<g clip-path="url(#clip0_60_663)">
<path d="M22.4928 44.7451C21.1975 44.7451 19.8778 44.6204 18.5816 44.3964C18.2582 44.3365 17.9717 44.1508 17.785 43.8801C17.5982 43.6094 17.5264 43.2756 17.5852 42.9521C17.6449 42.6285 17.8305 42.3418 18.1013 42.1549C18.372 41.9679 18.7059 41.896 19.0296 41.9548C21.2472 42.3541 23.4891 42.3784 25.7058 42.0054C27.9881 41.6076 30.1812 40.8062 32.1824 39.6388C34.5003 38.2928 36.4929 36.5495 38.0872 34.4322C39.6297 32.3934 40.7631 30.0754 41.4249 27.6061C42.0725 25.141 42.2721 22.5991 41.9478 20.0835C41.6253 17.4709 40.769 14.9524 39.4322 12.6846C38.1622 10.5177 36.6419 8.72368 34.774 7.22971C34.2509 6.80511 34.1506 6.00843 34.5996 5.48539C35.0476 4.96244 35.8199 4.86211 36.3429 5.31106C38.4593 7.01391 40.2344 9.10167 41.5748 11.4643C43.0633 14.0288 44.0205 16.8667 44.3895 19.8088C44.7477 22.6511 44.5532 25.5359 43.8168 28.3043C43.0751 31.0826 41.7974 33.689 40.0555 35.9768C38.2635 38.3642 35.9993 40.357 33.4037 41.8311C31.1364 43.1508 28.6704 44.0731 26.1051 44.4958C24.9091 44.6458 23.7131 44.7451 22.4928 44.7451L22.4928 44.7451ZM7.94442 38.8909C7.64546 38.8909 7.34646 38.7662 7.09715 38.5675C5.53664 37.1377 4.2308 35.4528 3.23555 33.5849C1.75123 31.0274 0.794497 28.1983 0.421862 25.2647C0.0731999 22.4248 0.271877 19.5605 1.01983 16.7702C1.76777 13.9799 3.0134 11.3893 4.7568 9.09765C6.54846 6.71045 8.81241 4.71768 11.4077 3.24343C15.0687 1.12523 19.3042 0.103541 23.6138 0.303228C24.2858 0.328541 24.8341 0.926504 24.7845 1.59948C24.7592 2.27149 24.1621 2.8198 23.4891 2.77014C19.7026 2.56995 15.939 3.46965 12.6524 5.36072C10.3364 6.73111 8.34274 8.47442 6.7484 10.5917C5.20594 12.6305 4.07256 14.9485 3.41076 17.4179C2.76314 19.8839 2.56349 22.4248 2.88781 24.9404C3.21036 27.5531 4.06662 30.0715 5.40341 32.3393C5.40341 32.3646 5.42873 32.3646 5.42873 32.3889C6.25072 33.9589 7.37172 35.3789 8.79169 36.7239C9.28937 37.1972 9.31468 37.9695 8.86666 38.4925C8.62194 38.739 8.29161 38.8817 7.94438 38.8909H7.94442ZM22.4928 44.9944C21.1722 44.9944 19.8516 44.8697 18.5319 44.6204C18.1386 44.549 17.7894 44.3253 17.5599 43.998C17.446 43.8371 17.3653 43.6551 17.3225 43.4627C17.2797 43.2702 17.2757 43.0711 17.3106 42.8771C17.3823 42.4837 17.6062 42.1344 17.9339 41.9051C18.2573 41.6811 18.6556 41.5818 19.0549 41.6567C21.2273 42.0592 23.4535 42.076 25.6317 41.7064C27.8909 41.3239 30.0608 40.53 32.0333 39.3641H32.0587C34.3503 38.0445 36.3186 36.3255 37.8885 34.2326C39.4095 32.2246 40.5262 29.9403 41.1765 27.5067C41.8219 25.0795 41.9994 22.5517 41.6994 20.0582C41.3819 17.4829 40.5425 14.9994 39.2326 12.7596C37.9878 10.617 36.4676 8.84835 34.624 7.35342C33.9773 6.83038 33.8769 5.88375 34.4 5.2614C34.9229 4.61374 35.8696 4.51345 36.4929 5.03645C38.6355 6.75541 40.3545 8.79869 41.7988 11.2646C43.3148 13.8571 44.2895 16.7299 44.6641 19.7095C45.0396 22.5857 44.8363 25.5079 44.0661 28.3043C43.3269 31.1186 42.0402 33.7596 40.2795 36.0762C38.4629 38.4884 36.1745 40.5057 33.5536 42.0054C31.261 43.3504 28.7707 44.2717 26.1547 44.6954C24.9443 44.8949 23.7195 44.9949 22.4928 44.9944H22.4928ZM7.94442 39.1402C7.57045 39.1402 7.19744 38.9902 6.92278 38.7418C5.27879 37.1962 3.9835 35.5279 3.01253 33.7096C1.50466 31.1247 0.538398 28.2601 0.172516 25.29C-0.178335 22.4132 0.0243198 19.4958 0.769557 16.6952C1.50874 13.8809 2.79547 11.2399 4.55615 8.92328C6.37299 6.51103 8.66171 4.49372 11.283 2.99413C14.9946 0.851534 19.2545 -0.170107 23.6138 0.0295368C24.4358 0.079195 25.0834 0.776519 25.0338 1.59948C25.0127 1.98211 24.8462 2.3422 24.5682 2.60601C24.2903 2.86982 23.922 3.01738 23.5388 3.01848H23.4638C19.6772 2.84415 15.9909 3.71677 12.7527 5.58475C10.4854 6.92974 8.51712 8.64967 6.94809 10.7416C5.43663 12.7555 4.32091 15.0378 3.6601 17.4675C3.01022 19.8942 2.84086 22.4245 3.16154 24.9161C3.47878 27.4913 4.31787 29.9748 5.62754 32.2147C5.64189 32.2275 5.65092 32.2452 5.65285 32.2643C6.47485 33.809 7.54614 35.2046 8.9661 36.5243C9.26511 36.7989 9.41413 37.1719 9.4394 37.5712C9.46379 37.9695 9.31477 38.3435 9.04015 38.6425C8.90502 38.8005 8.73687 38.927 8.54756 39.013C8.35825 39.099 8.15238 39.1424 7.94446 39.1402L7.94442 39.1402ZM21.2725 18.2145L16.9872 13.6313C16.4145 13.0586 16.5139 12.1119 17.0865 11.5383C17.6602 10.9657 18.6068 11.065 19.1795 11.6386L23.4637 16.1966C24.0374 16.7702 23.9371 17.7169 23.3644 18.2895C22.7168 18.7882 21.8451 18.7882 21.2715 18.2145H21.2725ZM22.3428 18.8875C21.8948 18.8875 21.4459 18.7132 21.0972 18.3889L16.8129 13.8056C16.1653 13.1579 16.2149 12.0623 16.9123 11.364C17.5599 10.7173 18.6556 10.766 19.3539 11.4643L23.6382 16.0223C24.2858 16.6699 24.2361 17.7656 23.5389 18.4639L23.5135 18.4892L23.4891 18.5135C23.1556 18.7552 22.7547 18.886 22.3428 18.8875V18.8875ZM21.4712 16.1975L26.0301 11.9123C26.6028 11.3397 27.5494 11.439 28.1221 12.0116C28.3604 12.295 28.4826 12.6581 28.4642 13.0279C28.4458 13.3978 28.2881 13.7469 28.0228 14.0052L23.4638 18.2895C23.1852 18.5647 22.8094 18.719 22.4178 18.719C22.0262 18.719 21.6504 18.5647 21.3718 18.2895C20.7982 17.7412 20.8985 16.7702 21.4712 16.1966V16.1975ZM22.4179 18.9868C21.9445 18.9868 21.5209 18.8125 21.1975 18.4892C20.8732 18.1648 20.7242 17.7169 20.7485 17.2426C20.7739 16.7946 20.9735 16.3466 21.2969 16.0476L25.8557 11.7624C26.5025 11.1156 27.5991 11.1653 28.2973 11.8626L28.3217 11.887C28.5991 12.2216 28.7403 12.6485 28.7172 13.0825C28.6941 13.5166 28.5084 13.926 28.1971 14.2293L23.6382 18.5135C23.3063 18.8206 22.87 18.9899 22.4178 18.9868H22.4179ZM35.1722 4.11513L41.6488 5.36076C42.4211 5.55944 42.9704 6.30739 42.7951 7.07973V7.17904C42.5964 7.95138 41.8484 8.49969 41.0761 8.32536L34.5996 7.07872C33.8273 6.88004 33.279 6.13209 33.4533 5.36072V5.26136C33.653 4.48906 34.4253 3.91544 35.1723 4.11509L35.1722 4.11513ZM41.4004 8.49969C41.2757 8.49969 41.1755 8.47437 41.0761 8.45003L34.5996 7.20343C34.1879 7.09796 33.8262 6.85114 33.578 6.50611C33.3286 6.15745 33.2546 5.73474 33.3286 5.33541V5.21078C33.5536 4.33912 34.4253 3.76643 35.2219 3.96515L41.6985 5.21174C42.0978 5.31106 42.4718 5.55944 42.7201 5.90907C42.9695 6.25773 43.0445 6.68136 42.9695 7.07973V7.20436C42.864 7.61613 42.6172 7.97775 42.2721 8.226C41.9732 8.3994 41.6742 8.49969 41.4005 8.49969H41.4004ZM2.71348 35.5532L9.19005 36.7988C9.96239 36.9976 10.5107 37.7455 10.3364 38.5178V38.6171C10.1367 39.3895 9.38969 39.9378 8.6174 39.7634L2.14083 38.5169C1.36757 38.3182 0.819259 37.5702 0.994513 36.7988V36.6986C1.09387 35.9262 1.94118 35.3536 2.71348 35.5532V35.5532ZM8.91636 39.9125C8.81608 39.9125 8.69145 39.8872 8.59209 39.8628L2.11551 38.6162C1.24386 38.3931 0.670241 37.5459 0.868918 36.7492V36.6489C0.919543 36.2505 1.16884 35.8766 1.51755 35.6273C1.89056 35.3789 2.3395 35.2786 2.76318 35.3789L9.23975 36.6245C9.63807 36.7238 10.012 36.9732 10.2614 37.3218C10.5107 37.6705 10.5847 38.0942 10.5107 38.4934V38.6172C10.2857 39.3895 9.61373 39.9125 8.91636 39.9125V39.9125ZM29.468 21.3544H15.4679C14.6956 21.3544 14.1473 20.7808 14.1473 20.0329V19.7348C14.1473 18.9625 14.72 18.4133 15.4679 18.4133H29.468C30.2403 18.4133 30.7877 18.9868 30.7877 19.7348V20.0085C30.813 20.7808 30.2403 21.3535 29.468 21.3535V21.3544ZM29.468 21.6028H15.4679C14.571 21.6028 13.8736 20.9298 13.8736 20.0085V19.7348C13.8736 18.8379 14.5457 18.1405 15.467 18.1405H29.468C30.365 18.1405 31.0614 18.8125 31.0614 19.7339V20.0085C31.0614 20.9298 30.365 21.6018 29.468 21.6018V21.6028ZM21.0728 31.6419V21.0545C21.0728 20.2822 21.6455 19.7348 22.3925 19.7348H22.6671C23.4394 19.7348 23.9868 20.3066 23.9868 21.0545V31.717C23.9868 32.4893 23.4151 33.0366 22.6671 33.0366H22.2931C21.9551 32.9918 21.6449 32.8256 21.4204 32.569C21.1959 32.3124 21.0723 31.9829 21.0728 31.6419H21.0728ZM20.8478 28.279V24.8167H24.3111V28.279H20.8488H20.8478Z" fill="white"/>
<path d="M15.4676 18.6382C14.8443 18.6382 14.371 19.0872 14.371 19.7348V20.0085C14.371 20.6308 14.82 21.1051 15.4676 21.1051H29.4677C30.09 21.1051 30.5643 20.6561 30.5643 20.0085V19.7348C30.5643 19.1115 30.1144 18.6382 29.4677 18.6382H15.4676ZM15.4676 28.0053C14.6953 28.0053 14.147 27.4317 14.147 26.6838V26.411C14.147 25.6387 14.7197 25.0895 15.4676 25.0895H29.4677C30.24 25.0895 30.7874 25.663 30.7874 26.411V26.6847C30.8127 27.4317 30.24 28.0053 29.4677 28.0053H15.4676ZM21.5158 18.1049L21.5458 18.1405C21.7699 18.3645 22.0941 18.4891 22.4175 18.4891C22.7418 18.4891 23.0651 18.3645 23.2892 18.1405L27.8481 13.8552C28.2971 13.4073 28.3214 12.6837 27.9231 12.2112C27.4244 11.7126 26.6277 11.6883 26.1798 12.1119C26.1975 12.1119 23.83 14.3408 22.5094 15.5836L19.0039 11.8129C18.5072 11.3143 17.7096 11.2646 17.2606 11.7126C16.7629 12.2113 16.7132 13.008 17.1613 13.456L21.4455 18.0402C21.4683 18.0625 21.4917 18.0841 21.5159 18.1049H21.5158Z" fill="white"/>
<path d="M8.55084 36.8147L9.11509 36.9235C9.46371 36.9985 9.76272 37.2225 9.96236 37.4952C10.1873 37.7952 10.2361 38.1185 10.162 38.4419V38.5675C9.9867 39.2892 9.29035 39.7634 8.64171 39.5891L2.16514 38.3425C1.44347 38.1691 0.969215 37.4708 1.11916 36.7988V36.6742C1.14728 36.5127 1.2082 36.3587 1.29815 36.2217C1.3881 36.0846 1.50518 35.9675 1.64215 35.8775C1.78652 35.7794 1.94903 35.7113 2.12014 35.677C2.29125 35.6427 2.46748 35.643 2.63848 35.6778L5.27036 36.184C4.59137 35.3341 3.99386 34.4221 3.48574 33.4603C1.99081 30.9202 1.06853 28.1543 0.695523 25.2403C0.337241 22.4311 0.531776 19.5788 1.26817 16.8442C2.00341 14.0959 3.26381 11.5159 4.9798 9.2467C6.74842 6.88007 8.96603 4.93708 11.5567 3.44214C14.8699 1.52446 18.6312 0.527252 22.5171 0.527252H23.6138C23.8778 0.541318 24.1256 0.659314 24.303 0.855469C24.4804 1.05162 24.5729 1.31 24.5604 1.57416C24.5463 1.83825 24.4283 2.08603 24.2322 2.26339C24.036 2.44076 23.7776 2.53329 23.5135 2.52079C19.6519 2.32114 15.8409 3.21811 12.553 5.1358C10.1863 6.5061 8.16842 8.27569 6.54974 10.4174C4.9889 12.4757 3.8464 14.8199 3.18678 17.3175C2.51539 19.7998 2.33739 22.3896 2.66287 24.9404C2.99383 27.5859 3.85824 30.1368 5.20379 32.4386L5.2291 32.4892C6.07696 34.1129 7.20099 35.5766 8.55084 36.8147V36.8147ZM38.552 7.68146C39.6178 8.85649 40.5559 10.1412 41.3507 11.514C42.8268 14.0463 43.7756 16.8509 44.1401 19.7592C44.4985 22.5681 44.3043 25.42 43.5684 28.1544C42.8328 30.9028 41.5721 33.4828 39.8558 35.7519C38.0871 38.1186 35.8695 40.0616 33.2789 41.5565C31.0534 42.8729 28.6043 43.7679 26.0544 44.1968C24.8691 44.3956 23.6693 44.4959 22.4674 44.4967C21.1974 44.4967 19.8768 44.3721 18.6059 44.1471C18.4749 44.1246 18.3499 44.0755 18.2387 44.0028C18.1275 43.9301 18.0323 43.8353 17.9591 43.7244C17.8855 43.616 17.8343 43.494 17.8086 43.3656C17.7828 43.2371 17.783 43.1048 17.8092 42.9764C17.8588 42.7028 18.0088 42.4788 18.2328 42.3297C18.4072 42.2295 18.6068 42.1545 18.8055 42.1545C18.8552 42.1545 18.9301 42.1798 19.0052 42.1798C21.2471 42.6025 23.5134 42.6025 25.7563 42.2294C28.0657 41.8304 30.2847 41.0202 32.3079 39.8375C34.6492 38.4672 36.6662 36.6986 38.2858 34.5569C39.8471 32.4983 40.9899 30.1538 41.6497 27.6557C42.32 25.1647 42.4977 22.5667 42.1727 20.0076C41.8418 17.362 40.9773 14.8111 39.6318 12.5094C38.4169 10.3937 36.8222 8.52025 34.9276 6.98321L34.6492 6.92978C34.3173 6.83856 34.0215 6.64747 33.8019 6.38244C33.6991 6.25011 33.6277 6.09608 33.5933 5.93204C33.5589 5.76801 33.5623 5.59829 33.6032 5.43577V5.31017C33.7776 4.58753 34.4749 4.1142 35.1225 4.28853L41.5991 5.50889C41.9478 5.58386 42.2468 5.80882 42.4464 6.08251C42.6714 6.38147 42.7201 6.70482 42.646 7.02914V7.15284C42.5711 7.47716 42.3461 7.77616 42.0724 7.97581C41.7734 8.1998 41.4501 8.24945 41.1258 8.17448L38.552 7.67961V7.68146Z" fill="white"/>
<path d="M23.8123 27.7804V31.7169C23.8123 32.3636 23.339 32.8135 22.7166 32.8135H22.3426C22.0619 32.7639 21.8078 32.6165 21.6254 32.3974C21.443 32.1783 21.3441 31.9017 21.3463 31.6166V27.7804H15.4677C14.82 27.7804 14.3711 27.3071 14.3711 26.6838V26.411C14.3711 25.7634 14.8444 25.3144 15.4677 25.3144H21.3463V21.0545C21.3463 20.4078 21.8196 19.9579 22.4429 19.9579H22.7166C23.3642 19.9579 23.8132 20.4321 23.8132 21.0545V25.3144H29.4678C30.1145 25.3144 30.5644 25.7877 30.5644 26.411V26.6847C30.5644 27.3323 30.0901 27.7813 29.4678 27.7813H23.8123V27.7804Z" fill="white"/>
</g>
<defs>
<clipPath id="clip0_60_663">
<rect width="45" height="45" fill="white"/>
</clipPath>
</defs>
</svg>
