<svg width="43" height="38" viewBox="0 0 43 38" fill="none" xmlns="http://www.w3.org/2000/svg">
<path d="M41.6555 10.521C41.971 11.1943 42.0906 11.9429 42.0005 12.681C41.9632 14.0433 41.5326 15.3656 40.7608 16.4888C39.989 17.6119 38.9088 18.4878 37.6505 19.011C36.4334 19.6225 35.0816 19.9166 33.7205 19.866C32.5291 19.8867 31.3455 19.6707 30.2383 19.2304C29.131 18.79 28.1223 18.1343 27.2705 17.301C26.4437 18.1302 25.4586 18.7846 24.3737 19.2253C23.2888 19.666 22.1263 19.8838 20.9555 19.866C19.7849 19.8821 18.6229 19.6635 17.5383 19.2229C16.4536 18.7824 15.4683 18.1288 14.6405 17.301C13.817 18.1305 12.8346 18.7852 11.7521 19.226C10.6695 19.6667 9.50916 19.8844 8.34049 19.866C6.99386 19.8943 5.6559 19.644 4.41049 19.131C3.15686 18.6285 2.0744 17.7756 1.29239 16.6745C0.510386 15.5733 0.0618969 14.2702 0.000493574 12.921C-0.00952588 12.1312 0.133085 11.3468 0.420494 10.611V10.371L4.21549 2.57102C4.58143 1.74663 5.19622 1.05745 5.97365 0.600139C6.75108 0.142828 7.65215 -0.0596784 8.55049 0.0210209H33.5255C34.4468 -0.0683316 35.3732 0.128575 36.1785 0.584904C36.9837 1.04123 37.6287 1.73478 38.0255 2.57102L41.5355 10.251C41.6555 10.251 41.6555 10.371 41.6555 10.521V10.521ZM36.3305 16.821C37.1119 16.49 37.7727 15.9269 38.2235 15.2078C38.6742 14.4888 38.8931 13.6486 38.8505 12.801C38.8344 12.2892 38.7382 11.7831 38.5655 11.301V11.166L35.0705 3.54602C34.9259 3.27817 34.708 3.05698 34.4424 2.90825C34.1769 2.75952 33.8744 2.68938 33.5705 2.70602H8.55049C7.44049 2.70602 7.15549 3.30602 7.15549 3.42602L3.36049 11.211V11.346C3.20023 11.8308 3.10933 12.3358 3.09049 12.846C3.14374 13.7035 3.43423 14.5292 3.92954 15.2311C4.42485 15.933 5.1055 16.4835 5.89549 16.821C6.68528 17.1794 7.54925 17.344 8.41549 17.301C9.28448 17.3127 10.1441 17.1207 10.9256 16.7404C11.707 16.3601 12.3885 15.8021 12.9155 15.111C12.9847 14.8698 13.1325 14.6586 13.3355 14.511C13.748 14.1421 14.282 13.9381 14.8355 13.9381C15.3889 13.9381 15.923 14.1421 16.3355 14.511C16.4396 14.5502 16.5325 14.6145 16.6058 14.6983C16.679 14.782 16.7305 14.8826 16.7555 14.991C17.2866 15.679 17.9685 16.2361 18.7486 16.6194C19.5287 17.0026 20.3863 17.2019 21.2555 17.2019C22.1247 17.2019 22.9823 17.0026 23.7624 16.6194C24.5425 16.2361 25.2243 15.679 25.7555 14.991C25.9244 14.8588 26.0668 14.6959 26.1755 14.511C26.576 14.1913 27.073 14.0168 27.5855 14.016C28.0975 13.9913 28.5986 14.1691 28.9805 14.511C29.2655 14.751 29.2655 14.991 29.4005 15.111C29.9299 15.7995 30.6119 16.3556 31.3928 16.7356C32.1736 17.1157 33.0321 17.3092 33.9005 17.301C34.7364 17.3277 35.5675 17.1635 36.3305 16.821V16.821ZM33.0005 11.826H8.55049C8.17967 11.8283 7.82116 11.6931 7.54415 11.4465C7.26714 11.2 7.09128 10.8596 7.05049 10.491C7.09128 10.1224 7.26714 9.78203 7.54415 9.5355C7.82116 9.28896 8.17967 9.15377 8.55049 9.15602H32.8205C33.1913 9.15377 33.5498 9.28896 33.8268 9.5355C34.1038 9.78203 34.2797 10.1224 34.3205 10.491C34.2852 10.8305 34.1352 11.1478 33.8952 11.3906C33.6552 11.6333 33.3396 11.7869 33.0005 11.826ZM18.2255 34.806C19.2905 34.806 20.0255 35.226 20.1155 36.171C19.9655 37.176 19.3205 37.401 18.2255 37.521H10.6505C9.83204 37.542 9.01796 37.3953 8.25834 37.0898C7.49873 36.7844 6.80967 36.3267 6.23356 35.745C5.65746 35.1633 5.2065 34.4698 4.90845 33.7072C4.6104 32.9447 4.47157 32.1292 4.50049 31.311V24.336C4.50049 23.301 4.86049 22.431 6.00049 22.431C7.14049 22.431 7.50049 23.271 7.50049 24.336V31.311C7.50049 32.631 7.90549 34.971 10.6505 34.806H18.2255ZM34.5005 28.521H39.0005C39.3983 28.521 39.7799 28.6791 40.0612 28.9604C40.3425 29.2417 40.5005 29.6232 40.5005 30.021C40.5005 30.4188 40.3425 30.8004 40.0612 31.0817C39.7799 31.363 39.3983 31.521 39.0005 31.521H34.5005V36.021C34.5005 36.4188 34.3425 36.8004 34.0612 37.0817C33.7799 37.363 33.3983 37.521 33.0005 37.521C32.6027 37.521 32.2211 37.363 31.9398 37.0817C31.6585 36.8004 31.5005 36.4188 31.5005 36.021V31.521H27.0005C26.6027 31.521 26.2211 31.363 25.9398 31.0817C25.6585 30.8004 25.5005 30.4188 25.5005 30.021C25.5005 29.6232 25.6585 29.2417 25.9398 28.9604C26.2211 28.6791 26.6027 28.521 27.0005 28.521H31.5005V24.021C31.5005 23.6232 31.6585 23.2417 31.9398 22.9604C32.2211 22.6791 32.6027 22.521 33.0005 22.521C33.3983 22.521 33.7799 22.6791 34.0612 22.9604C34.3425 23.2417 34.5005 23.6232 34.5005 24.021V28.521Z" fill="white"/>
</svg>
